<svg xmlns="http://www.w3.org/2000/svg" xmlns:xlink="http://www.w3.org/1999/xlink" width="100.0" height="100.0" viewBox="-75.19628851924388 39.925919678804824 0.07306378896265642 0.05065880085865615" preserveAspectRatio="xMinYMin meet"><g transform="matrix(1,0,0,-1,0,79.9024981584683)"><path fill-rule="evenodd" fill="#66cc99" stroke="#555555" stroke-width="0.0014612757792531283" opacity="0.6" d="M -75.147912265285,39.967334387054 L -75.1471496096083,39.9671359178457 L -75.1467450645063,39.969301981916 L -75.1465465355745,39.9703897171618 L -75.1458627925039,39.9703094848583 L -75.145019805516,39.9702004822099 L -75.1440670348386,39.9700799761733 L -75.1435919290369,39.9700207407997 L -75.1430971266291,39.9699638328999 L -75.1423724655888,39.9698751750946 L -75.1415199455181,39.9697673678765 L -75.1406684365362,39.9696616243815 L -75.1395813862618,39.9695241008629 L -75.139000565346,39.9694154942948 L -75.13859221097,39.9693392679371 L -75.1385000571331,39.969320383618 L -75.1380078120656,39.9692274311695 L -75.1377662762605,39.9691775472737 L -75.1372552852206,39.9690838539239 L -75.13679326977,39.968998885529 L -75.1362263790933,39.9688908721019 L -75.1357405195881,39.9688047372452 L -75.1353571065638,39.9687355764692 L -75.1351452914054,39.9686970107279 L -75.1344309396085,39.9688010249317 L -75.1344250328072,39.9676040327187 L -75.1344226768355,39.9670290421883 L -75.1344214492763,39.9669203857327 L -75.1344122235075,39.9661034214962 L -75.1344168307408,39.9653460032635 L -75.1344171245435,39.9650285256858 L -75.134417357275,39.9647774441488 L -75.1343504209403,39.9644869324341 L -75.1340011157219,39.9647800750377 L -75.1336904610255,39.9650407780842 L -75.1319843571385,39.9657150824817 L -75.1317852650268,39.965793767252 L -75.1297706728045,39.9665919459081 L -75.1295177357485,39.9666470932022 L -75.1287001846132,39.9669869071712 L -75.1277029094593,39.965361879637 L -75.1259307965391,39.9624740627938 L -75.1277765802961,39.9615303284008 L -75.1290896686139,39.9607172093291 L -75.1298321877247,39.9602251137887 L -75.1304797884975,39.95962004186 L -75.1304969840518,39.9596039754333 L -75.1308816069867,39.9591522575662 L -75.1310816029002,39.9589173709795 L -75.1315398368723,39.9582915124263 L -75.1322697880426,39.9570514403905 L -75.1338238492316,39.9542711806803 L -75.1344842603181,39.9529520456893 L -75.1345404068695,39.9528398957543 L -75.1346900480436,39.9525063906713 L -75.1348795499863,39.9520840457205 L -75.135320864314,39.9508214688866 L -75.1357427358353,39.9495266314966 L -75.1358927880834,39.9488932238398 L -75.1360388511425,39.9482766508885 L -75.1361726742967,39.9474843017733 L -75.1362895114961,39.9465961190482 L -75.1363182447228,39.9458490997527 L -75.1362291929725,39.9449403178359 L -75.1360272516068,39.9437426191838 L -75.135973586978,39.9433893972365 L -75.1358623343837,39.9426571197146 L -75.1357647341022,39.9419708522845 L -75.13569817603,39.9410148576988 L -75.1357005901095,39.9408029780988 L -75.1357155755073,39.9394880905748 L -75.1359462544926,39.9340220067179 L -75.135948978973,39.933957440086 L -75.1359310553708,39.9328116591444 L -75.1359142438755,39.9324532427642 L -75.1358742861783,39.9316013595764 L -75.1357245448008,39.9306593760034 L -75.1354582733403,39.9295238405265 L -75.1351797830277,39.9287061839938 L -75.1351477813996,39.9286257450627 L -75.1410116085503,39.9293930750019 L -75.1413839654633,39.9294417910373 L -75.1440684677765,39.92979012715 L -75.1444806500092,39.9298590253183 L -75.1445843920635,39.9299168718366 L -75.1455435891567,39.9300396002468 L -75.1458686375388,39.9300854295824 L -75.1461123560598,39.930119790199 L -75.1461956269305,39.9301315300174 L -75.1464166238697,39.9301238621824 L -75.1463735842493,39.9302352767086 L -75.1461731480123,39.9313301926728 L -75.146083361059,39.9317207924095 L -75.1460047249839,39.9321037144989 L -75.1459125867491,39.9325464047086 L -75.1458412277016,39.9328448922874 L -75.1457593329993,39.9332094224845 L -75.1457053301468,39.933447241858 L -75.145538697737,39.9334278754407 L -75.1453956958439,39.9333875353597 L -75.1453810021044,39.933456321768 L -75.1451165901396,39.9345981079556 L -75.1448907925765,39.9354743466232 L -75.1452614530046,39.9355743032096 L -75.1457427330042,39.9357040156513 L -75.1461680096067,39.9358190293196 L -75.1463586916304,39.9358705971749 L -75.1468110040725,39.9359919139373 L -75.1469074487512,39.936019361369 L -75.1478145421551,39.9362649765896 L -75.1482876133875,39.9363888559908 L -75.1486967008673,39.9364955620445 L -75.1493206664446,39.9366666095191 L -75.1499305915586,39.9368433504366 L -75.1499343388744,39.9368444355243 L -75.1499388953432,39.9368457561019 L -75.1502308761357,39.9369303629943 L -75.1517609799288,39.9373407799566 L -75.1532891631393,39.9377450687415 L -75.1537263295431,39.9378719686858 L -75.1548107413318,39.9381594967631 L -75.1563197838051,39.9385783375278 L -75.1567845217837,39.9386911498578 L -75.1571735018113,39.9388018647076 L -75.1578504902309,39.9389912278906 L -75.1582962120386,39.9390528263995 L -75.1586349764362,39.9391000681127 L -75.1590478344545,39.9391473148634 L -75.1594191019144,39.9391903355966 L -75.1597986658922,39.9392362869861 L -75.1602165879124,39.9392943749802 L -75.160922090375,39.9393761612826 L -75.162575997545,39.9395765606788 L -75.1641419086456,39.9397682061909 L -75.1662272857316,39.9400427967616 L -75.1664369531274,39.9390648628873 L -75.1667149349191,39.9378538537585 L -75.1668188889286,39.9378780682321 L -75.1684486268254,39.9380942384146 L -75.1689548784292,39.9381535456957 L -75.170027421092,39.9382720940091 L -75.1705299808045,39.9383361262523 L -75.1708424086561,39.9383723390703 L -75.1710608787673,39.9383977597714 L -75.1716057243008,39.9384569184336 L -75.1722203383084,39.938541035639 L -75.1726832038866,39.938595511056 L -75.1731766216534,39.9386509647507 L -75.1737328838245,39.9387298946924 L -75.174207475593,39.9387811529934 L -75.1747536249191,39.9388354189363 L -75.1763132925311,39.9390308159076 L -75.1782537421775,39.9392771193665 L -75.1798409055547,39.9394878763673 L -75.1814971959759,39.939696608385 L -75.183143003746,39.9399049221821 L -75.1849579527377,39.9400934101114 L -75.1853433903958,39.9400901784455 L -75.1857841167936,39.9401412501811 L -75.1863188504847,39.9402032135733 L -75.1865541722875,39.9402395031732 L -75.1874473230357,39.9403735151406 L -75.1879829391213,39.9400662098704 L -75.1882418457094,39.9398878140223 L -75.1887150449491,39.9395768173908 L -75.1890131321431,39.9394332547806 L -75.1904969442625,39.9403376318903 L -75.1925932362969,39.941614055505 L -75.1927800721038,39.9417304598052 L -75.193582452986,39.9422303602994 L -75.1935300516732,39.9422393638352 L -75.1933578290617,39.9422778661634 L -75.1931859978884,39.9423230083814 L -75.1930155745908,39.9423745608695 L -75.1928482371216,39.9424325078847 L -75.1926856657803,39.9424968337454 L -75.1925295372989,39.9425675245019 L -75.1923815496776,39.9426446856194 L -75.1922431315104,39.9427315998245 L -75.1921129331891,39.9428277676297 L -75.191988894971,39.9429305022719 L -75.1918689584298,39.9430371134033 L -75.1917510638764,39.9431449133413 L -75.1916401384937,39.9432450028093 L -75.1915751895584,39.9432070984186 L -75.191362241199,39.9430834764834 L -75.1910887740299,39.9429254162592 L -75.1910095450851,39.9428797335008 L -75.1909680305273,39.9429188832471 L -75.1909443737515,39.9429411933085 L -75.1908643761374,39.9430166348059 L -75.1906094353251,39.9432570046391 L -75.1903959814783,39.9434423011634 L -75.1903582204559,39.9434836518368 L -75.1903048841337,39.9435391314238 L -75.190259169018,39.9435860115502 L -75.1902190688799,39.9436383977939 L -75.1901873881869,39.9436744194922 L -75.1901050470177,39.9437417684936 L -75.1900104903219,39.9438351353409 L -75.1899440997293,39.9438936436338 L -75.1898595428851,39.9439598230635 L -75.1897814595248,39.9440360607285 L -75.1896852764814,39.9441240714684 L -75.1896173041153,39.9441822000913 L -75.1895715556818,39.9442464993269 L -75.1894870009668,39.944332234947 L -75.1894020268973,39.9444340955161 L -75.1893552507892,39.9444817309961 L -75.1892848087017,39.944531728557 L -75.1892190348859,39.9445835575328 L -75.1891252676899,39.9446652912809 L -75.1890326722358,39.9447339738723 L -75.1889541686405,39.9447839164917 L -75.1889049436919,39.9448207579951 L -75.1888387930799,39.9448796494721 L -75.1887958347186,39.9449254535379 L -75.18875182121,39.9449627266992 L -75.1887083782509,39.9449976258115 L -75.1886528836122,39.9450413217468 L -75.1886013838453,39.9450816100481 L -75.1885223166249,39.9451291259978 L -75.1884314530321,39.9452083814065 L -75.1883537694206,39.9452675673829 L -75.1882779665959,39.9453173509343 L -75.1882265997602,39.9453481706355 L -75.1882095926883,39.9453750120949 L -75.1881945675156,39.9454099249082 L -75.1881650443575,39.9454290634091 L -75.1881375000336,39.9454380655943 L -75.1880904708806,39.9454644257139 L -75.1880423077808,39.9454813359296 L -75.1880266322708,39.9454868594894 L -75.1879437399494,39.9455478768458 L -75.1878622537919,39.9456078587597 L -75.1878401648655,39.9456306645614 L -75.1878115866117,39.9456558770636 L -75.1877860031959,39.9456803951035 L -75.1877613666219,39.9457055695003 L -75.1877352259543,39.9457317951091 L -75.1877176619057,39.9457492778887 L -75.1876711408677,39.9457551674471 L -75.1876132814783,39.9457644347674 L -75.1875884696155,39.9457879842972 L -75.187580693487,39.945802598853 L -75.1875906154564,39.9458168212899 L -75.1875968142559,39.9458289801343 L -75.1875936316859,39.9458348385818 L -75.1873238423966,39.9460050299351 L -75.187272915856,39.9460182515372 L -75.187235963078,39.9460324016144 L -75.1871906242998,39.9460338168545 L -75.1871417777138,39.9460310586127 L -75.1871071970591,39.9460329358376 L -75.1870986141038,39.946062793638 L -75.1870819947378,39.9460918159407 L -75.1870553007624,39.9461241964519 L -75.1869958950254,39.9461725579672 L -75.1869342493556,39.9462307696972 L -75.1868569333077,39.9462898584101 L -75.1867913980625,39.9463255534172 L -75.1867192713179,39.9463723177609 L -75.1866379604185,39.9464088855225 L -75.18660142098,39.9464258783158 L -75.1865188073938,39.9464787900343 L -75.1864625814204,39.946514494686 L -75.1864378124461,39.946537851223 L -75.1863961497471,39.9465770114272 L -75.1868752190108,39.9469250409713 L -75.1867942009905,39.9469796806457 L -75.1866588985665,39.9470720118866 L -75.1865239449184,39.9471647075704 L -75.1863952009394,39.947253716197 L -75.1863893472333,39.9472577633538 L -75.1862551091212,39.9473511766159 L -75.1861212389729,39.9474449421392 L -75.1859877404328,39.9475390564028 L -75.1858546195525,39.9476335141369 L -75.1857218822817,39.9477283127729 L -75.1855895346722,39.9478234470414 L -75.1854575815383,39.9479189134473 L -75.1853260300677,39.9480147076476 L -75.1851948839388,39.948110825221 L -75.1850641503396,39.9482072618245 L -75.1849338340847,39.9483040139631 L -75.1848039423619,39.9484010772939 L -75.1846744799859,39.9484984483221 L -75.1845454518394,39.9485961217521 L -75.184416863907,39.9486940941153 L -75.1842887222072,39.9487923610427 L -75.1841610339284,39.9488909181916 L -75.1840337581998,39.9489897628471 L -75.1839062189376,39.9490889420561 L -75.1837785670285,39.9491886141673 L -75.1836513112162,39.9492889473379 L -75.1836124218397,39.9493200847813 L -75.183524958974,39.9493901124024 L -75.1834000190489,39.9494922775224 L -75.1832769977485,39.9495956135104 L -75.1831564049933,39.9497002885588 L -75.1830387471291,39.9498064725838 L -75.1829245340129,39.9499143355822 L -75.1828142708599,39.9500240465473 L -75.1827084675323,39.9501357754792 L -75.1826076763245,39.9502497158542 L -75.182515055054,39.9503675601833 L -75.1824311432422,39.9504896854709 L -75.1823543030327,39.9506152883145 L -75.1822828943594,39.950743561652 L -75.1822152817602,39.9508737003218 L -75.1821498238815,39.951004899927 L -75.1820848864467,39.9511363544235 L -75.182018828118,39.9512672585067 L -75.1819110515544,39.9514660496497 L -75.181893393274,39.9514973446958 L -75.1818757256875,39.9515286377293 L -75.1818671325294,39.9515438490378 L -75.1818580488291,39.9515599278497 L -75.181840365038,39.9515912151095 L -75.1818226731107,39.9516225003827 L -75.1818049754205,39.9516537828216 L -75.1817872707637,39.9516850633 L -75.1817695614798,39.9517163418704 L -75.1817518463649,39.9517476194069 L -75.1817341266229,39.9517788950354 L -75.1817164022196,39.9518101696561 L -75.1816986743589,39.951841442395 L -75.1816809441764,39.9518727141785 L -75.1816632104685,39.9519039858807 L -75.1816454744387,39.9519352566275 L -75.1816277384267,39.9519665264713 L -75.1816100000589,39.9519977962599 L -75.1815922617088,39.9520290651456 L -75.1815745233084,39.9520603349286 L -75.1815567848916,39.952091604709 L -75.181539048764,39.9521228754392 L -75.181521312654,39.9521541452664 L -75.1815035799689,39.9521854169699 L -75.181485849607,39.952216688723 L -75.1814681226698,39.9522479623525 L -75.1814503991916,39.952279236958 L -75.181432680342,39.9523105125657 L -75.1814149649172,39.9523417900498 L -75.1813972564265,39.9523730694887 L -75.1813795525304,39.9524043508302 L -75.1813618555684,39.9524356341266 L -75.1813441655404,39.9524669193778 L -75.1813264824126,39.9524982074843 L -75.1813088073886,39.9525294975718 L -75.1812911416042,39.9525607905668 L -75.1812734838555,39.9525920873435 L -75.1812558365503,39.9526233861537 L -75.1812381984506,39.9526546887717 L -75.1812205707603,39.9526859943235 L -75.1812029534112,39.9527173046095 L -75.1811853488111,39.9527486178816 L -75.1811677569258,39.9527799350401 L -75.1811501765517,39.9528112569592 L -75.1811326088923,39.9528425827646 L -75.1811150562874,39.9528739125089 L -75.1810975163294,39.9529052479401 L -75.1810799925955,39.9529365873364 L -75.1810624826782,39.9529679324457 L -75.1810449889511,39.9529992824204 L -75.1810401924616,39.9530078895892 L -75.18102751255,39.9530306381868 L -75.181010052339,39.9530619988184 L -75.180992609454,39.9530933652419 L -75.180975183895,39.9531247374571 L -75.1809577710169,39.953156114459 L -75.1809402826334,39.9531874753516 L -75.1809226990967,39.9532188133875 L -75.180905028459,39.9532501323513 L -75.1808872777044,39.9532814333002 L -75.1808694537835,39.953312718192 L -75.1808515660202,39.9533439881364 L -75.1808336213649,39.9533752450911 L -75.1808156266997,39.9534064928142 L -75.1807975902472,39.9534377305889 L -75.1807795200933,39.9534689612991 L -75.1807614231545,39.953500187803 L -75.1807433076191,39.9535314102838 L -75.1807251804375,39.9535626306993 L -75.1807070508317,39.95359385286 L -75.1806889246844,39.9536250759966 L -75.180670810082,39.9536563029933 L -75.1806527162803,39.9536875367605 L -75.1806346479585,39.953718777403 L -75.1806166155423,39.9537500278572 L -75.1805986260164,39.9537812891807 L -75.1805806862971,39.9538125642315 L -75.1805628034033,39.9538438531668 L -75.1805449865568,39.9538751597971 L -75.1805272439122,39.9539064852063 L -75.1805095812842,39.9539378304255 L -75.1804920067933,39.9539691974387 L -75.1804745284917,39.9540005900304 L -75.1804571534323,39.9540320074575 L -75.1804398908712,39.9540634526306 L -75.1804227465891,39.954094927481 L -75.1804057287067,39.9541264339928 L -75.1803888465141,39.9541579741762 L -75.1803721058263,39.9541895490624 L -75.1803555147638,39.9542211606355 L -75.1803390802432,39.9542528117535 L -75.180322811623,39.9542845026261 L -75.1803067158197,39.9543162361113 L -75.1802907998184,39.9543480132666 L -75.1802750728411,39.9543798379028 L -75.180259540771,39.9544117092506 L -75.1802442116606,39.9544436310946 L -75.1802290936985,39.9544756036184 L -75.1802262696352,39.9544816753451 L -75.1802141949374,39.9545076306063 L -75.1801995212264,39.9545397121895 L -75.1801850830255,39.9545718504045 L -75.1801708860819,39.954604048083 L -75.1801570963123,39.9546363449824 L -75.1801438274362,39.9546687679776 L -75.180131051618,39.9547013101381 L -75.1801187409879,39.9547339654336 L -75.1801068711852,39.9547667279125 L -75.1800954120347,39.954799590592 L -75.1800843391758,39.9548325475202 L -75.1800736236369,39.9548655908401 L -75.1800632386496,39.9548987163483 L -75.1800531598872,39.9549319171926 L -75.1800433560383,39.9549651854637 L -75.1800338039121,39.9549985152359 L -75.1800244756042,39.9550319013793 L -75.1800153433125,39.9550653360628 L -75.1800063803023,39.9550988141826 L -75.1799975599414,39.955132327934 L -75.1799888543251,39.9551658721868 L -75.1799802379567,39.9551994400628 L -75.1799716829997,39.9552330246311 L -75.1799631627533,39.9552666198879 L -75.1799546505168,39.9553002198286 L -75.1799461184876,39.9553338166225 L -75.1799375398967,39.9553674060656 L -75.1799288892809,39.9554009803796 L -75.1799201376339,39.9554345326073 L -75.179916747103,39.9554488304874 L -75.1798930117314,39.9555349994842 L -75.1798835901517,39.9555684024505 L -75.1798739328992,39.9556017523828 L -75.1798640144423,39.9556350433029 L -75.1798538058082,39.9556682673535 L -75.179843282635,39.9557014185828 L -75.1798324158477,39.9557344918342 L -75.1798212014257,39.9557675005327 L -75.1798096634232,39.9558004587323 L -75.1797978275075,39.9558333688101 L -75.1797857192774,39.9558662349435 L -75.1797733654678,39.9558990622364 L -75.1797607917458,39.9559318530658 L -75.1797480225066,39.9559646124833 L -75.1797359169726,39.9559952396588 L -75.1797350857232,39.9559973438186 L -75.179722004689,39.9560300502965 L -75.179708807309,39.9560627370473 L -75.1796955192166,39.9560954073482 L -75.1796821637054,39.9561280644243 L -75.1796693824513,39.9561592206656 L -75.1796687698503,39.9561607134318 L -75.1796553609792,39.9561933566955 L -75.1796419649971,39.9562259993458 L -75.1796286063339,39.9562586455339 L -75.179615310657,39.9562912976369 L -75.1796124109883,39.9562984668915 L -75.1796021035322,39.9563239607329 L -75.179589011763,39.9563566381254 L -75.1795760609491,39.956389333992 L -75.1795632755205,39.9564220524843 L -75.1795506834846,39.9564547960317 L -75.1795383092035,39.9564875705865 L -75.1795261783451,39.9565203785256 L -75.1795143176793,39.956553224053 L -75.1795027516362,39.9565861113203 L -75.1794915070197,39.9566190436312 L -75.1794806093959,39.9566520260635 L -75.1794700844331,39.9566850609947 L -75.1794599589012,39.9567181526287 L -75.1794502560269,39.9567513059909 L -75.1794410049538,39.9567845244376 L -75.1794322289769,39.9568178111939 L -75.1794239536965,39.9568511704375 L -75.179416040632,39.9568846107788 L -75.1794082846572,39.9569181384337 L -75.1794006989126,39.9569517464885 L -75.1793932940632,39.9569854315782 L -75.1793860843854,39.9570191877157 L -75.1793790805782,39.9570530106357 L -75.1793722969183,39.957086894351 L -75.1793657441045,39.9571208345963 L -75.1793594352095,39.9571548262585 L -75.1793533809667,39.9571888641722 L -75.1793475967884,39.9572229432765 L -75.1793420922379,39.9572570583798 L -75.179336881558,39.957291204395 L -75.1793319754478,39.9573253770571 L -75.179327388184,39.9573595703788 L -75.179323130466,39.9573937800947 L -75.1793192141969,39.9574280010657 L -75.1793156536194,39.9574622282048 L -75.1793124606709,39.9574964554724 L -75.1793096460166,39.9575306795035 L -75.1793072239334,39.9575648943109 L -75.1793052063246,39.9575990947553 L -75.1793036050595,39.9576332765976 L -75.1793024320754,39.9576674337982 L -75.1793017004114,39.9577015621442 L -75.1793014231407,39.9577356565226 L -75.179301611031,39.9577697108674 L -75.1793022770874,39.957803721866 L -75.1793034344172,39.957837683505 L -75.1793050937539,39.9578715906189 L -75.1793072693408,39.9579054381206 L -75.179309965892,39.9579392252148 L -75.1793131128892,39.9579729899658 L -75.1793166723192,39.9580067468389 L -75.1793206313485,39.9580404946455 L -75.1793249758715,39.9580742348715 L -75.1793296918508,39.9581079672024 L -75.1793347664867,39.9581416895492 L -75.1793401844697,39.9581754042718 L -75.1793459329661,39.9582091101817 L -75.1793519990742,39.9582428078907 L -75.1793583676204,39.9582764961577 L -75.1793650256689,39.9583101764948 L -75.1793719580462,39.958343847661 L -75.1793791530202,39.9583775102944 L -75.1793865965872,39.9584111631801 L -75.1793942734716,39.9584448077777 L -75.1794021708053,39.958478443799 L -75.1794102757544,39.9585120700553 L -75.1794185730772,39.958545687106 L -75.1794270498716,39.958579295563 L -75.1794356909639,39.9586128941853 L -75.1794444846219,39.9586464836109 L -75.1794534167734,39.9586800644256 L -75.1794624722448,39.9587136353883 L -75.1794716381337,39.9587471971109 L -75.179480901572,39.958780749305 L -75.1794902473518,39.9588142916299 L -75.1794996625708,39.9588478246976 L -75.1795091331908,39.9588813481933 L -75.1795186451397,39.9589148627029 L -75.1795281844474,39.9589483661113 L -75.1795377393132,39.9589818608571 L -75.1795472934272,39.9590153447729 L -75.1795568350229,39.9590488193971 L -75.1795663488921,39.959082284389 L -75.1795758221662,39.9591157394601 L -75.1795852408071,39.9591491842961 L -75.1795945907762,39.9591826185824 L -75.179603859171,39.959216042931 L -75.1796130307833,39.9592494570011 L -75.1796220938802,39.959282861431 L -75.1796309911162,39.9593162864712 L -75.1796395704227,39.9593498521535 L -75.1796478790365,39.9593835478231 L -75.1796559822531,39.9594173497145 L -75.1796639500818,39.9594512332671 L -75.1796718478527,39.9594851738151 L -75.1796797443713,39.9595191476717 L -75.1796877061718,39.9595531292972 L -75.1796958008559,39.9595870958788 L -75.1797040949583,39.9596210218767 L -75.1797126573189,39.9596548827038 L -75.1797215544043,39.9596886546207 L -75.1797308527151,39.9597223129878 L -75.1797406210919,39.9597558332181 L -75.1797509272054,39.9597891906979 L -75.1797618363528,39.9598223616617 L -75.1797734173747,39.9598553215222 L -75.1797857367385,39.9598880465399 L -75.1797988621834,39.9599205103007 L -75.1798128624483,39.9599526909179 L -75.1798226468583,39.9599735639996 L -75.179827802933,39.959984561925 L -75.1798437512749,39.9600160996083 L -75.1798485845672,39.9600249522012 L -75.1798607751115,39.9600472802545 L -75.1798789421143,39.9600780792496 L -75.1798982227312,39.96010850404 L -75.1799165963898,39.9601369361955 L -75.1799178220119,39.9601388314481 L -75.1799375466108,39.9601691274212 L -75.1799573941883,39.960199391907 L -75.1799773647447,39.9602296249052 L -75.1799974559403,39.9602598263636 L -75.1800176654014,39.9602899971298 L -75.1800379907883,39.9603201371514 L -75.1800584321012,39.9603502464283 L -75.1800789869664,39.9603803258082 L -75.1800996530784,39.9604103743386 L -75.1801204280634,39.9604403928671 L -75.1801413119217,39.9604703813937 L -75.1801623023134,39.9605003398659 L -75.1801833968309,39.9605302700318 L -75.1802045932027,39.9605601700383 L -75.1802258913947,39.9605900407857 L -75.1802472890673,39.9606198822216 L -75.1802687838128,39.9606496960938 L -75.1802903733937,39.9606794796494 L -75.1803120576737,39.9607092364891 L -75.1803338332457,39.9607389638337 L -75.1803557000414,39.9607686634834 L -75.1803776545514,39.9607983353596 L -75.1803996967418,39.9608279803627 L -75.1804218231709,39.9608575966134 L -75.1804440337709,39.9608871859121 L -75.1804663250321,39.9609167481803 L -75.1804886957847,39.9609462833916 L -75.1805111448249,39.96097579242 L -75.1805336698471,39.9610052743129 L -75.1805562696472,39.9610347299443 L -75.1805789418857,39.9610641592618 L -75.1806016853928,39.961093562239 L -75.1806244977946,39.9611229397238 L -75.1806473767854,39.9611522907635 L -75.1806703222974,39.9611816171585 L -75.1806933308548,39.96121091793 L -75.1807164024237,39.9612401939782 L -75.1807395334945,39.9612694452245 L -75.1807627229313,39.9612986707423 L -75.1807859694963,39.9613278723059 L -75.1808092708837,39.9613570489627 L -75.1808326258556,39.961386202487 L -75.1808560321404,39.9614153310256 L -75.1808794873302,39.9614444363269 L -75.180902991459,39.9614735174905 L -75.1809265409833,39.961502575338 L -75.1809501359029,39.9615316098693 L -75.1809737715044,39.96156062188 L -75.1809974501616,39.9615896105222 L -75.1810211660249,39.9616185756647 L -75.1810449201964,39.9616475191344 L -75.1810687103701,39.9616764399786 L -75.1810925330025,39.9617053390188 L -75.1811163881275,39.9617342153548 L -75.1811402733373,39.9617630707348 L -75.1811641875301,39.9617919033319 L -75.1811881282641,39.9618207157946 L -75.1812120944372,39.961849506296 L -75.1812360825399,39.9618782747578 L -75.1812600924701,39.9619070238805 L -75.1812841231259,39.9619357518374 L -75.1813081698277,39.9619644585238 L -75.1813322336773,39.9619931457664 L -75.1813563124031,39.9620218117123 L -75.1813804023931,39.9620504589836 L -75.1814045037154,39.9620790857798 L -75.1814286139962,39.9621076929488 L -75.1814527641296,39.962136268568 L -75.1814770348268,39.96216478381 L -75.1815014260535,39.9621932395749 L -75.1815259343004,39.9622216357841 L -75.1815505559215,39.96224997596 L -75.1815752873733,39.9622782609241 L -75.1816001262478,39.9623064924244 L -75.1816250677634,39.962334673057 L -75.1816501083764,39.9623628036434 L -75.181675245713,39.9623908850314 L -75.1817004761275,39.9624189207433 L -75.1817257960419,39.9624469125013 L -75.1817512007428,39.9624748611004 L -75.1817766889922,39.9625027683151 L -75.1818022548726,39.9625306358149 L -75.1818278971118,39.9625584662742 L -75.1818536121664,39.9625862605148 L -75.1818793941185,39.9626140202061 L -75.1819052417303,39.9626417471223 L -75.1819311513901,39.9626694438857 L -75.1819571183499,39.9626971121919 L -75.1819831414402,39.9627247520148 L -75.1820092146751,39.9627523668242 L -75.1820353356808,39.9627799574682 L -75.1820615008455,39.9628075265688 L -75.1820877077953,39.962835074974 L -75.1821139506126,39.9628626043532 L -75.1821402280254,39.9628901173809 L -75.1821665352861,39.962917615753 L -75.1821928712246,39.9629450994432 L -75.1822192286854,39.9629725718954 L -75.1822456076005,39.9630000349101 L -75.1822720021201,39.9630274883564 L -75.1822984097345,39.9630549366831 L -75.1823248281036,39.9630823798378 L -75.1823512513098,39.9631098194902 L -75.1823776780812,39.9631372583147 L -75.1824041037041,39.963164697107 L -75.1824305257364,39.9631921385153 L -75.1824569394645,39.9632195833353 L -75.1824833424463,39.9632470342153 L -75.1825097299683,39.9632744919509 L -75.1825360995884,39.9633019591904 L -75.1825624489328,39.9633294367818 L -75.1825887720836,39.9633569263946 L -75.1826150665651,39.9633844315776 L -75.1826413300373,39.9634119522784 L -75.1826675577523,39.9634394901927 L -75.1826937472683,39.9634670479691 L -75.1827198926675,39.963494627277 L -75.182745993916,39.963522229017 L -75.1827720450959,39.9635498548584 L -75.1827980437312,39.9635775083501 L -75.1828239863122,39.9636051894136 L -75.1828498692609,39.9636328997708 L -75.1828756889314,39.9636606429442 L -75.182901441848,39.9636884179552 L -75.1829271255006,39.9637162292526 L -75.1829527352093,39.9637440767319 L -75.1829782673965,39.9637719621149 L -75.1830037195858,39.9637998889505 L -75.1830290882676,39.9638278571601 L -75.1830543686941,39.9638558684396 L -75.1830795595591,39.9638839263639 L -75.1831046550128,39.9639120308021 L -75.1831296526134,39.9639401844028 L -75.1831545499867,39.9639683880139 L -75.183179342317,39.9639966451318 L -75.1832040260944,39.964024955678 L -75.1832285559425,39.9640533429647 L -75.183252888825,39.9640818303566 L -75.1832770331353,39.9641104126354 L -75.1833009948252,39.9641390872315 L -75.1833247810842,39.9641678498007 L -75.1833484014418,39.9641966960513 L -75.1833718630536,39.9642256225394 L -75.1833951719393,39.9642546248946 L -75.1834183387643,39.9642836997517 L -75.1834413683443,39.9643128436144 L -75.183464269073,39.9643420512645 L -75.1834707316235,39.9643503535738 L -75.1834870492758,39.9643713192843 L -75.1835097161085,39.9644006442297 L -75.1835322778966,39.9644300226832 L -75.1835430947907,39.9644441933593 L -75.183554740694,39.9644594493742 L -75.1835771139959,39.9644889209109 L -75.1835994037544,39.9645184347237 L -75.1836216183969,39.9645479846939 L -75.1836437661811,39.9645775692044 L -75.1836658531608,39.9646071829844 L -75.1836878888655,39.9646368217421 L -75.183709880417,39.9646664829339 L -75.1837318350049,39.9646961622155 L -75.1837537586832,39.9647258543162 L -75.1837756620492,39.9647555576711 L -75.1837975511568,39.9647852670095 L -75.1838194343319,39.9648149789137 L -75.1838413175941,39.9648446890132 L -75.183863210473,39.964874393016 L -75.1838851200907,39.9649040883786 L -75.1839070536367,39.9649337707564 L -75.1839290183008,39.9649634358054 L -75.1839510235789,39.9649930801337 L -75.1839730754907,39.9650226993711 L -75.183995181192,39.9650522900734 L -75.1840173502127,39.9650818479487 L -75.1840395897085,39.9651113695529 L -75.1840618207958,39.9651408972714 L -75.1840837576313,39.9651705895965 L -75.1841054014186,39.9652004456544 L -75.1841267797127,39.9652304489423 L -75.1841479199666,39.965260585658 L -75.1841688485994,39.9652908383723 L -75.184189595404,39.9653211933354 L -75.1842101867995,39.9653516331181 L -75.1842306490691,39.9653821438918 L -75.1842510109717,39.9654127082798 L -75.1842713010968,39.9654433134061 L -75.1842915447273,39.9654739409149 L -75.1843117716566,39.9655045770564 L -75.1843320082698,39.9655352053013 L -75.1843522820543,39.9655658109472 L -75.1843726205654,39.9655963774909 L -75.1843930512904,39.9656268902299 L -75.1844136029207,39.9656573335876 L -75.1844343018077,39.9656876919348 L -75.1844551755069,39.9657179487686 L -75.1844762526756,39.9657480894122 L -75.1844975596655,39.9657780982368 L -75.1845191251679,39.9658079596655 L -75.1845409755005,39.9658376589693 L -75.1845631394228,39.9658671787711 L -75.1845856432525,39.9658965043419 L -75.1846085156471,39.965925621005 L -75.1846317841622,39.9659545122571 L -75.1846554751155,39.9659831633693 L -75.1846796172667,39.966011556964 L -75.1847042380355,39.9660396801388 L -75.1847293650115,39.9660675154902 L -75.1847550245465,39.9660950473888 L -75.1847812464341,39.966122262084 L -75.1848080559241,39.9661491421198 L -75.1848353869003,39.9661757328703 L -75.1848628638449,39.9662022728164 L -75.1848904448231,39.96622878715 L -75.1849181310729,39.9662552740965 L -75.1849459191863,39.9662817308767 L -75.1849738126735,39.966308157569 L -75.1850018092965,39.9663345514203 L -75.1850299090894,39.9663609115301 L -75.1850581121883,39.9663872342975 L -75.1850864185592,39.9664135206226 L -75.1851148271341,39.9664397677785 L -75.1851433380151,39.9664659730643 L -75.1851719512023,39.9664921364799 L -75.1852006667978,39.9665182553245 L -75.1852294836995,39.9665443277714 L -75.1852584031115,39.9665703529463 L -75.1852874239319,39.9665963290227 L -75.1853165450926,39.9666222532735 L -75.1853457689677,39.9666481248506 L -75.1853750920813,39.9666739427753 L -75.1854045168754,39.9666997043991 L -75.1854340410779,39.9667254078691 L -75.1854636658929,39.9667510523111 L -75.1854933913883,39.9667766359245 L -75.1855232164624,39.9668021568826 L -75.1855531412168,39.9668276124846 L -75.1855831644818,39.9668530027042 L -75.1856132886994,39.966878324893 L -75.1856435103933,39.9669035780721 L -75.1856738308358,39.9669287595669 L -75.1857042511968,39.9669538694034 L -75.1857347693061,39.966978903028 L -75.1857653851299,39.9670038613409 L -75.1857960999402,39.9670287416674 L -75.1858269114307,39.9670535430549 L -75.1858578220436,39.9670782628548 L -75.1858888283028,39.9671029000884 L -75.1859199326502,39.9671274521071 L -75.1859511339159,39.9671519188847 L -75.1859824322356,39.9671762968202 L -75.1860138276095,39.9672005859134 L -75.1860453177993,39.9672247834113 L -75.1860769051792,39.9672488884657 L -75.1861085886809,39.9672728983498 L -75.1861403671344,39.9672968130373 L -75.1861722418457,39.9673206289532 L -75.1862042116787,39.9673443451711 L -75.1862362766672,39.9673679607907 L -75.1862684357432,39.9673914730849 L -75.1863006901446,39.9674148802794 L -75.1863330399053,39.9674381814738 L -75.1863654839231,39.9674613748415 L -75.1863980210961,39.9674844585555 L -75.1864306526621,39.9675074308417 L -75.1864633774849,39.9675302907733 L -75.1864961968364,39.9675530356759 L -75.1865291084445,39.9675756636965 L -75.1865621134791,39.9675981748611 L -75.186595212076,39.9676205655687 L -75.1866284019292,39.9676428348667 L -75.1866616854464,39.9676649810068 L -75.1866951049705,39.9676869679934 L -75.1867288934804,39.9677086109182 L -75.1867630751231,39.9677298904979 L -75.1867976352811,39.967750821723 L -75.1868325594725,39.9677714159826 L -75.1868678331474,39.9677916864666 L -75.1869034417901,39.9678116454645 L -75.1869393720207,39.9678313061922 L -75.1869756093234,39.9678506809395 L -75.1870121391145,39.9678697837963 L -75.1870489458099,39.9678886243254 L -75.1870860182682,39.9679072184958 L -75.1871233385313,39.9679255767183 L -75.1871608943556,39.9679437131354 L -75.1871986712251,39.9679616400367 L -75.1872366546242,39.9679793697118 L -75.1872748300031,39.9679969153509 L -75.1873131828461,39.9680142892435 L -75.1873516997733,39.968031504606 L -75.1873903663031,39.9680485728277 L -75.1874291666478,39.9680655088731 L -75.1874680875296,39.9680823232577 L -75.1875071143649,39.9680990300717 L -75.1875462338419,39.9681156407309 L -75.1875854302071,39.9681321692997 L -75.1876246901148,39.9681486280938 L -75.1876639990492,39.9681650294034 L -75.187703342461,39.9681813864186 L -75.1877427058682,39.968197710529 L -75.1877820746876,39.9682140158251 L -75.1878214355394,39.9682303155233 L -75.1878607739421,39.9682466210134 L -75.1879000742102,39.9682629445592 L -75.1879393229301,39.9682793002775 L -75.1879785067564,39.9682957004845 L -75.1880176100035,39.9683121574439 L -75.188056619292,39.9683286843725 L -75.1880955189703,39.9683452926339 L -75.1881342967612,39.9683619972713 L -75.188172935877,39.968378808722 L -75.1882114507994,39.9683957155965 L -75.1882501551061,39.9684124140477 L -75.1882891264958,39.9684288310264 L -75.1883283479091,39.9684449841718 L -75.1883677986066,39.9684608955457 L -75.1884074591887,39.9684765827349 L -75.1884473101202,39.9684920669274 L -75.1884873331037,39.9685073675368 L -75.1885275063319,39.9685225038982 L -75.1885678126433,39.9685374963515 L -75.1886082313668,39.9685523651584 L -75.1886487442731,39.968567127932 L -75.188689330623,39.9685818067346 L -75.1887299709492,39.9685964209536 L -75.1887706481587,39.9686109891286 L -75.1888113392401,39.9686255314692 L -75.1888520270326,39.9686400683156 L -75.188892692069,39.9686546190553 L -75.1889333137122,39.96866920305 L -75.1889738735972,39.9686838415141 L -75.1890143511551,39.9686985520086 L -75.189054729157,39.9687133566745 L -75.1890949858298,39.9687282739469 L -75.1891351028767,39.9687433232399 L -75.1891750607968,39.9687585248415 L -75.1892148401233,39.9687738981397 L -75.1892544201514,39.9687894642968 L -75.1892937838222,39.9688052409526 L -75.1893329104311,39.9688212492692 L -75.1893717793073,39.9688375095088 L -75.189410373392,39.9688540393114 L -75.1894486719466,39.9688708607394 L -75.1894866567084,39.9688879923068 L -75.1895243058706,39.9689054533496 L -75.1895616022388,39.9689232651086 L -75.1895985252101,39.9689414460454 L -75.1896350552841,39.9689600164486 L -75.18967117413,39.9689789966327 L -75.1897068611453,39.9689984050596 L -75.1897420968293,39.9690182620176 L -75.1897768628514,39.9690385878216 L -75.1898112065222,39.9690593700121 L -75.189845536695,39.9690804176882 L -75.1898799051064,39.9691016941619 L -75.1899142905944,39.9691232016639 L -75.1899486721669,39.9691449379238 L -75.1899830263893,39.9691669033199 L -75.1900173310315,39.9691890973561 L -75.1900515638632,39.9692115195366 L -75.19008570379,39.9692341702918 L -75.1901197262415,39.9692570490736 L -75.1901536125313,39.9692801545642 L -75.1901873368509,39.9693034879901 L -75.1902208793439,39.9693270480074 L -75.1902542165757,39.9693508349943 L -75.1902873274858,39.9693748484815 L -75.1903201886736,39.9693990879468 L -75.1903527790784,39.9694235529209 L -75.1903850752994,39.9694482428819 L -75.1904170562422,39.9694731582605 L -75.1904486996759,39.9694982985611 L -75.1904799821997,39.969523663262 L -75.1905108827189,39.9695492527939 L -75.1905413790364,39.9695750657611 L -75.1905714477174,39.9696011025422 L -75.190601068871,39.9696273626937 L -75.1906302179262,39.969653845668 L -75.1906588737879,39.9696805518961 L -75.1906870130889,39.969707479956 L -75.1907146159043,39.9697346303047 L -75.1907416588328,39.9697620024207 L -75.1907681196092,39.9697895967087 L -75.1907939760362,39.9698174117733 L -75.1908192047124,39.9698454470927 L -75.1908437856786,39.9698737040244 L -75.1908676967373,39.9699021811726 L -75.190890913317,39.9699308779898 L -75.1909134143222,39.969959794907 L -75.1909351786914,39.9699889314549 L -75.1909561830567,39.9700182862117 L -75.1909764051187,39.9700478604826 L -75.1909958238495,39.9700776528981 L -75.1910144416224,39.9701076626105 L -75.1910325406389,39.9701378589723 L -75.1910502125693,39.970168233216 L -75.1910674681471,39.9701987801752 L -75.191084316902,39.9702294955576 L -75.1911007683634,39.9702603750708 L -75.1911168344011,39.9702914144746 L -75.1911325257485,39.9703226086025 L -75.1911478518674,39.9703539549627 L -75.1911628211514,39.9703854483364 L -75.19117744781,39.9704170845356 L -75.1911917390331,39.9704488592158 L -75.1912057066901,39.9704807681368 L -75.1912193603108,39.9705128070061 L -75.1912327105949,39.9705449715574 L -75.191245768242,39.9705772575244 L -75.191258542782,39.9706096606146 L -75.1912710449144,39.9706421765617 L -75.1912832853391,39.9706748010994 L -75.1912952735857,39.9707075299352 L -75.1913070203881,39.9707403579025 L -75.191318536378,39.9707732825354 L -75.1913298311194,39.9708062986412 L -75.1913409164819,39.9708394019796 L -75.1913518008254,39.9708725882322 L -75.1913624948497,39.9709058531323 L -75.1913730104586,39.9709391915396 L -75.1913833571143,39.9709726009619 L -75.1913935432103,39.9710060761806 L -75.1914035829567,39.9710396130074 L -75.1914134823735,39.9710732070716 L -75.1914232557044,39.9711068532848 L -75.1914329100715,39.9711405491027 L -75.1914424585828,39.9711742885107 L -75.1914519095305,39.9712080689906 L -75.1914612736482,39.9712418853759 L -75.1914705616701,39.9712757324996 L -75.1914797842624,39.9713096069957 L -75.1914889497509,39.9713435054458 L -75.191498071244,39.9713774218352 L -75.1915071570336,39.9714113536456 L -75.1915162190579,39.9714452948364 L -75.1915252668129,39.9714792420151 L -75.191534309829,39.9715131908891 L -75.1915433588061,39.9715471371922 L -75.1915524256146,39.9715810766837 L -75.1915615186147,39.9716150050452 L -75.1915706485066,39.9716489180102 L -75.1915798259905,39.9716828113121 L -75.1915890617668,39.9717166806845 L -75.1915983665357,39.9717505218609 L -75.1916077498614,39.9717843296485 L -75.1916172212065,39.9718181015553 L -75.1916267913389,39.9718518315141 L -75.1916364720615,39.9718855170851 L -75.1916462718023,39.9719191521492 L -75.1916562023639,39.9719527342663 L -75.1916662733445,39.9719862573435 L -75.1916764954108,39.9720197180145 L -75.191686878093,39.9720531119865 L -75.1916974320916,39.9720864349932 L -75.1917081681072,39.972119682768 L -75.1917190968404,39.9721528510445 L -75.1917388622689,39.9722111174789 L -75.1917523916508,39.9722436103109 L -75.1917658949987,39.9722761106697 L -75.1917793758226,39.9723086186335 L -75.1917928341227,39.9723411342024 L -75.1918062687965,39.9723736555497 L -75.1918196821502,39.9724061836278 L -75.1918330753881,39.9724387175626 L -75.1918464496799,39.9724712573803 L -75.1918598038557,39.9725038030547 L -75.1918731414596,39.9725363537638 L -75.1918864612875,39.9725689103818 L -75.1918997645774,39.9726014711344 L -75.1919130536355,39.9726340369738 L -75.1919263273256,39.9726666069739 L -75.1919395868178,39.9726991811606 L -75.1919528344522,39.9727317595862 L -75.1919660702628,39.9727643413504 L -75.1919792942494,39.9727969264532 L -75.1919925087864,39.9728295140465 L -75.1920057138395,39.9728621050307 L -75.192018910613,39.9728946985314 L -75.1920320991067,39.9729272945488 L -75.1920452805586,39.9729598913083 L -75.192058456037,39.972992491537 L -75.1920716268138,39.97302509256 L -75.192084794059,39.9730576944035 L -75.1920979577388,39.9730902979676 L -75.1921111178869,39.9731229023522 L -75.1921242768776,39.9731555067093 L -75.192137435881,39.9731881110647 L -75.1921505936929,39.9732207162929 L -75.1921637527215,39.9732533206453 L -75.1921769141029,39.9732859250483 L -75.192190077871,39.9733185286017 L -75.19220324523,39.9733511304313 L -75.1922164161457,39.9733837314374 L -75.1922295929924,39.9734163307718 L -75.1922427758041,39.9734489275343 L -75.1922559656829,39.9734815235515 L -75.1922691627306,39.9735141161226 L -75.1922823692197,39.9735467071004 L -75.1922955840477,39.9735792946581 L -75.1923088095551,39.973611878848 L -75.1923220468779,39.9736444605964 L -75.192335296084,39.9736770381028 L -75.1923485583097,39.9737096122935 L -75.1923618336227,39.973742181368 L -75.1923751243294,39.9737747462787 L -75.1923884304298,39.9738073070257 L -75.1924017519578,39.9738398627085 L -75.1924150924239,39.9738724134056 L -75.186437222284,39.9736800708207 L -75.186369891457,39.9735468588881 L -75.1861997990297,39.9735258035355 L -75.1853965517597,39.9734263661498 L -75.1848507936992,39.9733591951325 L -75.1837724529381,39.9732298125268 L -75.1821504430288,39.9730187779902 L -75.1814386651926,39.9729308200987 L -75.180731517959,39.9728503335035 L -75.1803234857153,39.9727968337832 L -75.1799417800174,39.9727511330315 L -75.1794913618642,39.9726914677443 L -75.1791447629429,39.9726518252606 L -75.1785794830059,39.9725827550668 L -75.1781101959285,39.9725186429591 L -75.1778647228381,39.972489100077 L -75.1775405080537,39.9724466252103 L -75.1770306436594,39.9723835974147 L -75.1765446624528,39.9723198127107 L -75.1759499934867,39.9722414395395 L -75.1753702520335,39.972166039056 L -75.1749463968663,39.9721113027412 L -75.1743692891919,39.972044139255 L -75.1733437039397,39.9719059803013 L -75.1726611958442,39.9718325868092 L -75.1719947655383,39.9717428384418 L -75.1713198072846,39.9716596169839 L -75.1705537398219,39.971579280137 L -75.1692762280081,39.9714155609137 L -75.1688953606416,39.9713639709281 L -75.1684792197765,39.9713187410622 L -75.1677057197378,39.9712210120491 L -75.1668144415815,39.9711056911742 L -75.1667347083223,39.9710936957906 L -75.1659885774223,39.9709989111815 L -75.1653131030148,39.9709195123064 L -75.1645569341554,39.9708260122079 L -75.1629830402012,39.9706322696921 L -75.1614063098294,39.9704376998659 L -75.1605624933184,39.9703289563417 L -75.1598551895477,39.9702296970826 L -75.1597050625324,39.9702111791744 L -75.1589082518875,39.9700152226086 L -75.1576223373606,39.9696972581299 L -75.1571852241957,39.9695896545973 L -75.1560870197809,39.9693192998603 L -75.1545514065663,39.9689406481232 L -75.1530210031878,39.9685583505308 L -75.1520024703655,39.9683072488502 L -75.1515029769097,39.96819186404 L -75.1509753235354,39.9680870343369 L -75.1505174142246,39.967980444883 L -75.1495602712834,39.9677416322797 L -75.1486920072509,39.9675257464755 L -75.147912265285,39.967334387054 z" /></g></svg>