<svg xmlns="http://www.w3.org/2000/svg" xmlns:xlink="http://www.w3.org/1999/xlink" width="100.0" height="100.0" viewBox="-75.182137216 39.964583184000006 0.002454732000003901 0.0019550319999908083" preserveAspectRatio="xMinYMin meet"><g transform="matrix(1,0,0,-1,0,79.9311214)"><path fill-rule="evenodd" fill="#66cc99" stroke="#555555" stroke-width="4.9094640000078014e-05" opacity="0.6" d="M -75.1811567,39.9646741 L -75.1813839,39.9648389 L -75.1813371,39.9648768 L -75.181767,39.9651884 L -75.1818166,39.9651482 L -75.1820463,39.9653147 L -75.1814884,39.965767 L -75.1817207,39.9659353 L -75.1815757,39.9660529 L -75.1814275,39.9661728 L -75.1812049,39.9660112 L -75.1806659,39.9664473 L -75.1804209,39.9662695 L -75.1804641,39.9662345 L -75.180056,39.9659383 L -75.1800146,39.9659717 L -75.1797734,39.9657966 L -75.1800852,39.9655442 L -75.1803197,39.9657143 L -75.1802777,39.9657483 L -75.1806952,39.9660511 L -75.1809751,39.9658244 L -75.1808755,39.9657509 L -75.1810241,39.9656364 L -75.1811681,39.9655257 L -75.1812623,39.9655835 L -75.1815346,39.965363 L -75.181129,39.9650689 L -75.1810809,39.9651078 L -75.1808384,39.9649321 L -75.1811567,39.9646741 z" /></g></svg>