<svg xmlns="http://www.w3.org/2000/svg" xmlns:xlink="http://www.w3.org/1999/xlink" width="100.0" height="100.0" viewBox="-75.02237448000001 40.03293552 0.011487960000010844 0.007403959999997767" preserveAspectRatio="xMinYMin meet"><g transform="matrix(1,0,0,-1,0,80.073275)"><path fill-rule="evenodd" fill="#66cc99" stroke="#555555" stroke-width="0.0002297592000002169" opacity="0.6" d="M -75.021949,40.034346 L -75.021906,40.03451 L -75.021733,40.034817 L -75.021512,40.035148 L -75.021354,40.035436 L -75.021291,40.035624 L -75.021296,40.035816 L -75.021339,40.036066 L -75.021503,40.036382 L -75.021632,40.036627 L -75.021806,40.037024 L -75.021682,40.037088 L -75.019671,40.038125 L -75.019016,40.03847 L -75.018434,40.038766 L -75.01783,40.039076 L -75.017026,40.039498 L -75.016212,40.039914 L -75.015351,40.038938 L -75.014997,40.039096 L -75.01432,40.039451 L -75.012541,40.038027 L -75.012161,40.037722 L -75.011947,40.03755 L -75.011312,40.037041 L -75.012249,40.036544 L -75.0153,40.034847 L -75.017898,40.033402 L -75.017973,40.033361 L -75.018175,40.033496 L -75.018617,40.033655 L -75.019595,40.033737 L -75.019865,40.033757 L -75.019998,40.033766 L -75.020111,40.033775 L -75.020223,40.033783 L -75.020425,40.033791 L -75.020825,40.033777 L -75.021255,40.033743 L -75.021419,40.033751 L -75.021572,40.033806 L -75.021725,40.033923 L -75.021799,40.034007 L -75.021891,40.034111 L -75.021949,40.034222 L -75.021949,40.034346 z" /></g></svg>