<svg xmlns="http://www.w3.org/2000/svg" xmlns:xlink="http://www.w3.org/1999/xlink" width="113.21256665112259" height="100.0" viewBox="-175.9841686270069 14.723131975884407 113.21256665112259 60.82768962517303" preserveAspectRatio="xMinYMin meet"><g transform="matrix(1,0,0,-1,0,90.27395357694184)"><g><path fill-rule="evenodd" fill="#66cc99" stroke="#555555" stroke-width="2.0" opacity="0.6" d="M -122.84000000000005,49.00000000000014 L -120.0,49.00000000000006 L -117.03121000000002,49.00000000000006 L -116.04818000000002,49.00000000000014 L -112.99999999999997,49.00000000000014 L -110.05,49.00000000000006 L -107.04999999999998,49.00000000000006 L -104.04826000000004,48.9998600000001 L -100.65000000000006,49.00000000000014 L -97.22872000000478,49.000699999999966 L -95.15906950917204,49.00000000000006 L -95.15609000000003,49.38424999999998 L -94.81758000000002,49.389050000000026 L -94.64000000000004,48.839999999999975 L -94.32914000000002,48.67073999999997 L -93.63087000000004,48.609260000000035 L -92.60999999999996,48.44999999999999 L -91.64000000000001,48.140000000000015 L -90.83000000000004,48.27000000000007 L -89.60000000000005,48.01000000000013 L -89.27291744663665,48.019808254582784 L -88.3781141832867,48.30291758889368 L -87.43979262330029,47.940000000000026 L -86.46199083122823,47.55333801939196 L -85.6523632474034,47.22021881773054 L -84.87607988151493,46.90008331968241 L -84.77923824739989,46.637101955749074 L -84.54374874544584,46.538684190449175 L -84.60490000000004,46.43960000000001 L -84.33670000000004,46.408770000000146 L -84.14211951367335,46.51222585711568 L -84.09185126416145,46.27541860613829 L -83.89076534700573,46.11692698829907 L -83.61613094759056,46.116926988298985 L -83.46955074739469,45.994686387712505 L -83.59285071484305,45.81689362241258 L -82.55092464875824,45.34751658790549 L -82.33776312543114,44.44000000000011 L -82.13764238150395,43.57108755144003 L -82.42999999999998,42.98000000000005 L -82.90000000000003,42.43000000000001 L -83.11999999999998,42.08000000000001 L -83.14199968131263,41.97568105729286 L -83.02981014680702,41.832795722005955 L -82.69008928092026,41.675105088867355 L -82.4392777167916,41.675105088867355 L -81.27774654816713,42.20902598730689 L -80.24744767934791,42.36619985612259 L -78.93936214874378,42.86361135514795 L -78.91999999999999,42.965 L -79.01000000000005,43.26999999999998 L -79.17167355011185,43.46633942318425 L -78.72027991404235,43.6250894231849 L -77.7378850979577,43.62905558936333 L -76.82003414580555,43.62878428809378 L -76.50000000000003,44.018458893758634 L -76.37499999999997,44.09630999999996 L -75.31821,44.81645 L -74.86700000000005,45.00048000000015 L -73.34783000000004,45.007379999999955 L -71.50505999999993,45.008200000000045 L -71.405,45.255000000000166 L -71.08482000000006,45.3052400000002 L -70.65999999999997,45.460000000000036 L -70.30499999999998,45.91500000000005 L -69.99996999999999,46.693070000000006 L -69.23721600000002,47.44778099999999 L -68.90500000000006,47.185000000000116 L -68.23443999999995,47.35486000000003 L -67.79046000000002,47.06636000000003 L -67.79134000000002,45.70281 L -67.13741000000002,45.13753 L -66.96465999999998,44.80970000000019 L -68.03251999999992,44.32520000000005 L -69.05999999999997,43.9800000000001 L -70.11616999999998,43.684050000000184 L -70.64547563341105,43.09023834896399 L -70.81488999999999,42.865299999999905 L -70.82500000000002,42.33499999999995 L -70.49499999999989,41.805000000000035 L -70.07999999999998,41.78 L -70.185,42.145000000000124 L -69.8849699999999,41.92283000000006 L -69.96502999999998,41.63717000000011 L -70.64000000000001,41.474999999999994 L -71.12039000000007,41.4944500000002 L -71.85999999999993,41.32000000000011 L -72.29499999999996,41.27000000000004 L -72.87643000000006,41.220650000000006 L -73.71000000000004,40.931102351654516 L -72.2412599999999,41.11948000000018 L -71.94499999999991,40.93000000000012 L -73.34499999999991,40.63000000000011 L -73.98200000000006,40.6279999999999 L -73.95232499999992,40.75075000000007 L -74.25671000000003,40.473510000000005 L -73.9624399999999,40.42763000000005 L -74.17838,39.70926 L -74.9060399999999,38.939539999999994 L -74.98041,39.1964000000001 L -75.20002,39.24845000000013 L -75.52805000000001,39.49850000000012 L -75.31999999999994,38.96000000000009 L -75.07183476478986,38.782032230179226 L -75.05672999999999,38.40412000000006 L -75.37746999999999,38.01550999999998 L -75.94022999999993,37.21689000000012 L -76.03126999999998,37.25660000000002 L -75.72204999999988,37.93705000000014 L -76.23286999999999,38.31921499999996 L -76.35000000000002,39.150000000000006 L -76.54272499999999,38.71761500000014 L -76.32933000000006,38.08326000000008 L -76.98999793161352,38.239991766913334 L -76.30161999999999,37.91794499999989 L -76.25873999999999,36.96640000000005 L -75.97179999999992,36.897260000000045 L -75.86803999999992,36.55125000000007 L -75.72748999999993,35.55074000000016 L -76.36317999999994,34.808540000000164 L -77.39763499999987,34.51201000000003 L -78.05496000000002,33.92546999999999 L -78.55434999999991,33.86133000000015 L -79.06067000000002,33.49395000000001 L -79.20357000000001,33.158390000000026 L -80.3013249999999,32.50935500000011 L -80.86498,32.03330000000008 L -81.33629000000002,31.440489999999983 L -81.49041999999997,30.729990000000157 L -81.31371000000001,30.035520000000048 L -80.97999999999999,29.18000000000015 L -80.53558499999986,28.47213000000005 L -80.52999999999989,28.04000000000005 L -80.05653928497762,26.88000000000008 L -80.08801499999998,26.205765000000014 L -80.13155999999995,25.816775000000035 L -80.38103000000001,25.20616000000004 L -80.67999999999998,25.080000000000013 L -81.17213000000001,25.201260000000076 L -81.33000000000004,25.639999999999958 L -81.70999999999987,25.870000000000033 L -82.23999999999998,26.73000000000016 L -82.70515000000003,27.495040000000103 L -82.85525999999999,27.886240000000072 L -82.65,28.550000000000097 L -82.92999999999998,29.10000000000005 L -83.70959000000002,29.9365600000001 L -84.1,30.09000000000006 L -85.10881999999992,29.6361500000001 L -85.28784000000005,29.68612000000016 L -85.7731,30.152610000000152 L -86.39999999999986,30.400000000000148 L -87.53035999999994,30.274330000000077 L -88.41781999999998,30.384899999999988 L -89.18048999999993,30.31598000000008 L -89.59383117841983,30.159994004836875 L -89.413735,29.894190000000037 L -89.43,29.488639999999947 L -89.21767,29.29108000000008 L -89.40822999999997,29.15961000000007 L -89.77927999999991,29.307140000000174 L -90.15462999999994,29.1174300000001 L -90.88022499999997,29.14853500000015 L -91.62678499999996,29.677000000000163 L -92.49905999999999,29.55230000000006 L -93.22636999999997,29.783750000000026 L -93.84841999999992,29.71363000000011 L -94.69,29.48000000000016 L -95.60025999999993,28.738630000000086 L -96.59403999999998,28.307480000000083 L -97.1399999999999,27.830000000000098 L -97.36999999999998,27.38000000000008 L -97.37999999999997,26.690000000000083 L -97.32999999999998,26.21000000000012 L -97.1399999999999,25.870000000000033 L -97.52999999999992,25.84000000000009 L -98.23999999999995,26.06000000000006 L -99.01999999999995,26.370000000000033 L -99.30000000000001,26.840000000000032 L -99.51999999999994,27.54000000000005 L -100.10999999999999,28.110000000000156 L -100.45584000000002,28.69612000000012 L -100.95759999999999,29.380710000000164 L -101.66239999999999,29.779300000000063 L -102.48000000000002,29.75999999999999 L -103.11000000000001,28.97 L -103.94,29.27000000000004 L -104.45696999999991,29.57196000000002 L -104.70575,30.121730000000042 L -105.03737000000004,30.644019999999927 L -105.63159000000002,31.08383000000009 L -106.14290000000001,31.399950000000075 L -106.5075899999999,31.754519999999985 L -108.24000000000001,31.754853718166373 L -108.24193999999994,31.342220000000054 L -109.03500000000003,31.341940000000136 L -111.02361000000005,31.33471999999992 L -113.30498,32.03914000000012 L -114.815,32.52528000000001 L -114.72138999999994,32.72082999999989 L -115.99134999999998,32.61239000000009 L -117.12775999999987,32.535339999999934 L -117.29593769127396,33.04622461520384 L -117.94400000000003,33.621236431201424 L -118.41060227589749,33.74090922312442 L -118.51989482279978,34.02778157757578 L -119.08099999999997,34.07799999999989 L -119.43884064201667,34.34847717828424 L -120.36777999999993,34.447110000000094 L -120.62286,34.60855000000004 L -120.74432999999993,35.15686000000014 L -121.71456999999995,36.161529999999885 L -122.54746999999993,37.551760000000144 L -122.51201000000005,37.78339000000008 L -122.95319000000002,38.11371000000014 L -123.72720000000007,38.951660000000146 L -123.86516999999999,39.76699000000005 L -124.39806999999996,40.313199999999966 L -124.17885999999994,41.142020000000144 L -124.21370000000003,41.99964000000017 L -124.53283999999998,42.76599000000013 L -124.14214,43.708380000000005 L -124.020535,44.61589499999994 L -123.8989299999999,45.52341000000004 L -124.079635,46.86475000000007 L -124.3956699999999,47.72017000000014 L -124.68721008300781,48.18443298339858 L -124.56610107421875,48.37971496582034 L -123.12,48.04000000000008 L -122.58735999999988,47.09600000000009 L -122.34000000000005,47.36000000000004 L -122.49999999999994,48.18000000000009 L -122.84000000000005,49.00000000000014 z" /><path fill-rule="evenodd" fill="#66cc99" stroke="#555555" stroke-width="2.0" opacity="0.6" d="M -140.98598761037567,69.71199839952632 L -140.986,69.71200000000002 L -140.9925,66.00003000000004 L -140.99777999999998,60.30638999999999 L -140.01299999999998,60.276820000000015 L -139.039,60.0 L -138.34089,59.56211000000002 L -137.4525,58.90499999999997 L -136.47972000000007,59.46389000000008 L -135.47583000000003,59.787780000000026 L -134.94500000000008,59.27056000000016 L -134.27111000000005,58.86111000000008 L -133.35556000000003,58.41028000000006 L -132.73042000000004,57.69288999999998 L -131.70780999999997,56.55212000000003 L -130.00778000000003,55.91583000000011 L -129.98000000000002,55.28499999999997 L -130.53610999999995,54.80278000000001 L -130.53610895273678,54.802754476799336 L -130.53611018946734,54.80275340434943 L -131.08581823797215,55.17890615500207 L -131.9672114671423,55.497775580459006 L -132.25001074285956,56.3699962428974 L -133.53918108435641,57.17888743756217 L -134.07806292029602,58.12306753196694 L -135.03821103227904,58.187714748763966 L -136.62806230995477,58.212209377670405 L -137.80000627968602,58.499995429103734 L -139.867787041413,59.53776154238918 L -140.82527381713302,59.72751740176511 L -142.57444353556446,60.08444651960494 L -143.9588809948799,59.99918040632343 L -145.9255568168279,60.45860972761423 L -147.11437394914668,60.88465607364466 L -148.22430620012764,60.672989406977194 L -148.01806555885085,59.97832896589367 L -148.57082251686086,59.91417267520333 L -149.72785783587585,59.70565827090559 L -150.60824337461645,59.36821116803944 L -151.71639278868332,59.15582103131993 L -151.85943315326725,59.744984035879554 L -151.4097190012472,60.72580272077934 L -150.3469414947325,61.033587551509896 L -150.62111080625706,61.2844249538544 L -151.89583919981686,60.72719798445124 L -152.57832984109558,60.061657212964235 L -154.01917212625767,59.35027944603431 L -153.2875113596532,58.86472768821983 L -154.23249243875847,58.14637360293057 L -155.30749142151024,57.727794501366276 L -156.30833472392308,57.422774359763594 L -156.5560973785464,56.97998484967067 L -158.1172165598678,56.46360809999422 L -158.43332129619716,55.994153550838575 L -159.60332739971744,55.56668610292016 L -160.28971961163433,55.643580634170604 L -161.2230476552578,55.36473460552352 L -162.23776607974105,55.02418691672014 L -163.0694465810464,54.68973704692712 L -164.7855692210272,54.404173082082195 L -164.9422263255201,54.57222483989537 L -163.84833960676568,55.039431464246064 L -162.87000139061598,55.34804311789324 L -161.8041749745961,55.89498647727038 L -160.56360470278122,56.00805451112498 L -160.07055986228448,56.4180553249287 L -158.68444291891953,57.016675116597895 L -158.46109737855406,57.21692129172882 L -157.72277035218394,57.57000051536309 L -157.55027442119365,58.32832632103026 L -157.041674974577,58.91888458926175 L -158.19473120830557,58.61580231386978 L -158.51721798402306,58.78778148053735 L -159.05860612692882,58.42418610293163 L -159.7116670400174,58.93139028587629 L -159.9812888255002,58.57254914004167 L -160.3552711659965,59.07112335879367 L -161.35500342511511,58.670837714260784 L -161.96889360252635,58.671664537177406 L -162.05498653872468,59.26692536074748 L -161.87417070213542,59.63362132429063 L -162.51805904849215,59.98972361921386 L -163.81834143782024,59.79805573184342 L -164.66221757714655,60.2674844427826 L -165.34638770247483,60.50749563256235 L -165.35083187565192,61.07389516869753 L -166.12137915755605,61.50001902937626 L -165.7344518707706,62.07499685327184 L -164.91917863671793,62.63307648380797 L -164.56250790103934,63.146378485762995 L -163.7533324859971,63.2194489610238 L -163.0672244944579,63.059458726648046 L -162.26055538638178,63.541935736741124 L -161.53444983624865,63.45581696232679 L -160.7725066803211,63.76610810002322 L -160.95833513084264,64.22279857040272 L -161.51806840721218,64.40278758407527 L -160.77777767641484,64.78860382756645 L -161.39192623598768,64.77723501246237 L -162.45305009666893,64.55944468856816 L -162.75778601789418,64.33860545516876 L -163.5463942128843,64.55916046819053 L -164.96082984114517,64.4469450954688 L -166.4252882558645,64.68667206487066 L -166.84500423893914,65.08889557561449 L -168.11056006576715,65.66999705673678 L -166.70527116602196,66.08831777613935 L -164.4747096425755,66.57666006129753 L -163.65251176659567,66.57666006129753 L -163.78860165103626,66.0772073431967 L -161.67777442121013,66.11611969671245 L -162.48971452538007,66.73556509059514 L -163.7197169667912,67.11639455837005 L -164.43099138085654,67.61633820257774 L -165.39028683170676,68.04277212185028 L -166.76444068099607,68.35887685817971 L -166.2047074046267,68.8830309109162 L -164.4308105133435,68.91553538682777 L -163.16861365461452,69.37111481391284 L -162.93056616926202,69.8580618353993 L -161.90889726463558,70.33332998318767 L -160.93479651593367,70.44768992784961 L -159.03917578838713,70.89164215766888 L -158.11972286683397,70.82472117785107 L -156.5808245513981,71.35776357694178 L -155.0677902903243,71.14777639432364 L -154.3441652089412,70.69640859647015 L -153.9000062733926,70.88998851183564 L -152.21000606993528,70.82999217394487 L -152.27000240782615,70.6000062120298 L -150.7399924387445,70.43001658800566 L -149.72000301816752,70.53001048449048 L -147.61336157935705,70.21403493924183 L -145.68998980022536,70.12000967068678 L -144.92001095907642,69.98999176704052 L -143.58944618042517,70.15251414659835 L -142.07251034871354,69.85193817817267 L -140.98598752156073,69.71199839952632 L -140.98598761037567,69.71199839952632 z" /><path fill-rule="evenodd" fill="#66cc99" stroke="#555555" stroke-width="2.0" opacity="0.6" d="M -155.54211,19.083480000000037 L -155.68816999999996,18.916190000000057 L -155.93665000000001,19.05938999999998 L -155.90805999999995,19.338880000000046 L -156.07347000000001,19.702940000000012 L -156.02368,19.814219999999978 L -155.85008,19.97729000000004 L -155.91907,20.173949999999962 L -155.86108000000002,20.267210000000034 L -155.78504999999996,20.248699999999985 L -155.40213999999997,20.079750000000047 L -155.22452000000004,19.99302 L -155.06226000000004,19.85910000000007 L -154.80741,19.508710000000065 L -154.83146999999997,19.453280000000035 L -155.22217000000003,19.239720000000062 L -155.54211,19.083480000000037 z" /><path fill-rule="evenodd" fill="#66cc99" stroke="#555555" stroke-width="2.0" opacity="0.6" d="M -156.07925999999998,20.643969999999996 L -156.41445000000002,20.572409999999962 L -156.58673,20.782999999999987 L -156.70166999999998,20.864299999999957 L -156.71055,20.926759999999973 L -156.61257999999998,21.012489999999957 L -156.25711,20.917449999999974 L -155.99566000000004,20.764039999999994 L -156.07925999999998,20.643969999999996 z" /><path fill-rule="evenodd" fill="#66cc99" stroke="#555555" stroke-width="2.0" opacity="0.6" d="M -156.75824,21.17683999999997 L -156.78932999999995,21.068730000000016 L -157.32521000000003,21.097770000000025 L -157.25027,21.219580000000008 L -156.75824,21.17683999999997 z" /><path fill-rule="evenodd" fill="#66cc99" stroke="#555555" stroke-width="2.0" opacity="0.6" d="M -157.65283000000005,21.32217000000003 L -157.70702999999997,21.26442 L -157.77860000000004,21.277290000000022 L -158.12667000000005,21.31244000000001 L -158.2538,21.539190000000048 L -158.29264999999998,21.579120000000017 L -158.02519999999998,21.71696000000003 L -157.94161000000003,21.652720000000016 L -157.65283000000005,21.32217000000003 z" /><path fill-rule="evenodd" fill="#66cc99" stroke="#555555" stroke-width="2.0" opacity="0.6" d="M -159.34512000000004,21.98199999999997 L -159.46372000000002,21.882990000000035 L -159.80050999999997,22.06532999999996 L -159.74877000000004,22.13820000000004 L -159.5962,22.23618000000002 L -159.36568999999997,22.214939999999956 L -159.34512000000004,21.98199999999997 z" /><path fill-rule="evenodd" fill="#66cc99" stroke="#555555" stroke-width="2.0" opacity="0.6" d="M -153.0063140533369,57.11584219016592 L -154.00509029845813,56.73467682558109 L -154.51640275777007,56.992748928446645 L -154.67099280497115,57.46119578717253 L -153.76277950744145,57.81657461204372 L -153.22872941792116,57.96896841087246 L -152.5647906158351,57.901427313867 L -152.14114722390642,57.59105866152203 L -153.0063140533369,57.11584219016592 z" /><path fill-rule="evenodd" fill="#66cc99" stroke="#555555" stroke-width="2.0" opacity="0.6" d="M -165.57916419173358,59.909986884187504 L -166.19277014876727,59.75444082298904 L -166.848337368822,59.94140615502101 L -167.45527706609005,60.21306915957942 L -166.46779212142462,60.38416982689782 L -165.67442969466367,60.29360687930628 L -165.57916419173358,59.909986884187504 z" /><path fill-rule="evenodd" fill="#66cc99" stroke="#555555" stroke-width="2.0" opacity="0.6" d="M -171.7316568675394,63.78251536727595 L -171.11443356024532,63.59219106714494 L -170.4911124339407,63.69497549097355 L -169.68250545965356,63.43111562769121 L -168.68943946030066,63.29750621200054 L -168.7719408844547,63.18859813094548 L -169.52943986720513,62.976931464277925 L -170.29055620021597,63.194437567794495 L -170.67138566799096,63.375821845138915 L -171.55306311753876,63.31778921167512 L -171.79111060289125,63.40584585230053 L -171.7316568675394,63.78251536727595 z" /></g></g></svg>