<svg xmlns="http://www.w3.org/2000/svg" xmlns:xlink="http://www.w3.org/1999/xlink" width="300" height="300" viewBox="-8369168.025904123 4857759.09089646 3651.744707994163 2884.5403079930693" preserveAspectRatio="xMinYMin meet"><g transform="matrix(1,0,0,-1,0,9718402.722100914)"><path fill-rule="evenodd" fill="#66cc99" stroke="#555555" stroke-width="24.344964719961087" opacity="0.6" d="M -8366831.213900125,4860266.871900458 L -8366823.584800117,4860312.049400455 L -8366822.12820012,4860320.620400454 L -8366843.154300125,4860324.059300457 L -8366841.297000121,4860335.145700467 L -8366838.043600129,4860354.566200471 L -8366835.33410012,4860370.266800464 L -8366834.66090012,4860374.522700462 L -8366887.449200128,4860383.1597004635 L -8366887.4723001225,4860383.163400465 L -8366895.479600119,4860384.473500468 L -8366894.607800124,4860389.513800457 L -8366887.806400126,4860428.837500451 L -8366884.058100128,4860450.509600457 L -8366903.55390012,4860460.031100451 L -8366926.727400124,4860468.043900463 L -8366946.780000117,4860477.268400449 L -8367119.506700122,4860508.381400454 L -8367135.762700124,4860405.2608004585 L -8367151.930500123,4860317.263500468 L -8367166.9486001255,4860222.281400468 L -8367186.210400124,4860104.710200455 L -8367103.447400125,4860090.802300463 L -8367099.387300119,4860090.120000453 L -8367101.491900123,4860077.274200456 L -8367108.068700122,4860037.130500466 L -8367107.855400122,4860037.09150046 L -8367107.094400122,4860036.956700464 L -8367107.687800122,4860033.322000462 L -8367108.582800124,4860027.828100465 L -8367115.461300122,4859985.658900467 L -8367116.600700129,4859978.673600463 L -8367117.298700119,4859978.7879004665 L -8367118.769900123,4859969.848500461 L -8367118.860900123,4859969.289300465 L -8367122.416000125,4859947.673400468 L -8367129.477700124,4859904.732900459 L -8367106.443700128,4859900.969800468 L -8367110.3467001235,4859878.168000462 L -8367110.368400122,4859878.044300465 L -8367110.765900128,4859875.715200464 L -8367110.976400119,4859874.489900463 L -8367110.998000119,4859874.366500466 L -8367112.657500127,4859864.672000451 L -8367041.81700012,4859853.831700457 L -8367045.428100129,4859833.325800457 L -8367048.121000118,4859818.034000462 L -8367051.82800012,4859796.982700456 L -8367233.378000129,4859830.746500454 L -8367294.626100126,4859840.86760046 L -8367361.2258001175,4859849.891400464 L -8367404.760900122,4859852.251200462 L -8367418.097900119,4859852.376500465 L -8367458.797100128,4859852.75880046 L -8367520.899000124,4859865.182400462 L -8367583.587400128,4859878.624900456 L -8367759.470600128,4859907.526300465 L -8367755.651800125,4859932.066900464 L -8367767.100800127,4859933.86920046 L -8367772.47480013,4859934.715300462 L -8367820.98390012,4859942.3520004535 L -8367842.693100124,4859945.769500463 L -8367866.245000124,4859949.438100455 L -8367917.746400121,4859957.459800451 L -8367925.22480012,4859958.624600469 L -8367930.708400128,4859959.478700453 L -8367930.9340001205,4859959.5139004635 L -8367935.854500125,4859960.280300458 L -8367942.502400127,4859961.315600457 L -8368099.264700125,4859985.730600468 L -8368106.87420013,4859986.915700466 L -8368107.995900125,4859987.090400469 L -8368109.024800129,4859987.250600466 L -8368109.750400119,4859984.660300463 L -8368113.1378001245,4859974.4509004615 L -8368117.864900126,4859956.005900459 L -8368141.727700124,4859818.811800468 L -8368144.289900123,4859804.080600465 L -8368152.301900126,4859758.01640047 L -8368213.133700127,4859768.751900464 L -8368216.742000127,4859769.388600461 L -8368239.194000128,4859638.649200465 L -8368269.853800119,4859643.653500461 L -8368272.19480012,4859644.035600462 L -8368273.487800126,4859636.170700453 L -8368278.133300125,4859607.912800468 L -8368279.920800123,4859596.967300453 L -8368280.845200126,4859591.308000455 L -8368281.95190012,4859584.531900462 L -8368274.730300126,4859583.212300461 L -8368266.148500121,4859581.644100467 L -8368267.221400124,4859575.079200461 L -8368276.042000128,4859521.106600456 L -8368276.229700119,4859519.869000457 L -8368278.334200123,4859507.080700461 L -8368401.743500121,4859528.0118004605 L -8368457.523200127,4859536.07410046 L -8368470.912600122,4859538.009300469 L -8368527.1861001225,4859546.142600465 L -8368580.300400127,4859555.241900463 L -8368641.65800012,4859565.721900456 L -8368707.3528001215,4859576.084600472 L -8368720.8984001195,4859497.117100457 L -8368724.22930012,4859476.510500458 L -8368730.596600121,4859437.118300464 L -8368730.59740013,4859437.113800454 L -8368732.81130012,4859423.427300456 L -8368734.643300121,4859423.743200458 L -8368899.772100123,4859450.475200463 L -8368916.119900121,4859453.121500459 L -8368928.259500128,4859455.0866004545 L -8368964.978800125,4859336.530300463 L -8369018.733600121,4859345.216000463 L -8369024.308200129,4859328.712400458 L -8369032.776100123,4859306.301900463 L -8368977.09110012,4859297.42250046 L -8368964.780800121,4859295.459500463 L -8368948.359100123,4859292.840800462 L -8368941.132700122,4859291.688400455 L -8368936.975400123,4859290.968100454 L -8368941.201200126,4859277.677400465 L -8368950.045600126,4859250.396100465 L -8368965.574200126,4859202.027900472 L -8368967.213900125,4859196.842200463 L -8368970.824600118,4859185.8540004585 L -8368975.846500122,4859170.107700453 L -8368979.849000117,4859157.752900453 L -8368985.511200125,4859140.175600455 L -8368992.076700129,4859119.964000467 L -8369000.092700121,4859095.283100469 L -8368909.2726001255,4859079.931000459 L -8368908.411000126,4859079.795000457 L -8368908.39360012,4859079.905300458 L -8368898.560000118,4859138.483100457 L -8368890.276600123,4859186.83070047 L -8368882.868500119,4859233.029500466 L -8368767.589500128,4859217.8706004685 L -8368764.001400128,4859240.050600456 L -8368754.838700121,4859238.500800459 L -8368735.912300125,4859235.299700455 L -8368729.37380012,4859234.190700466 L -8368732.033000127,4859218.088200471 L -8368726.6023001205,4859217.210700459 L -8368715.49870013,4859215.366800468 L -8368704.857200125,4859213.5993004525 L -8368699.32890012,4859212.709600454 L -8368693.87500013,4859211.8337004585 L -8368688.154200126,4859210.828200452 L -8368677.493600124,4859209.072000453 L -8368675.143300126,4859223.364600464 L -8368674.953700124,4859224.597500462 L -8368668.671300125,4859223.582700461 L -8368662.433700122,4859222.637100467 L -8368662.2194001265,4859222.604700452 L -8368662.43120013,4859221.199700457 L -8368664.582200123,4859206.931600463 L -8368665.042600126,4859203.877900453 L -8368638.965100128,4859200.31960046 L -8368641.185200125,4859188.838400456 L -8368551.61290012,4859172.702200457 L -8368464.01340012,4859159.098100463 L -8368466.906100129,4859142.28890046 L -8368475.359400126,4859093.075700463 L -8368488.150800122,4859011.944900458 L -8368506.175600128,4858901.13620046 L -8368514.407100117,4858851.47080046 L -8368524.89810012,4858790.9683004655 L -8368310.663000126,4858756.464200457 L -8368192.532900121,4858737.0743004605 L -8368219.7182001285,4858570.874100456 L -8368229.58780013,4858504.899500463 L -8368175.502600123,4858494.854200464 L -8368000.176000128,4858467.588200464 L -8367995.283400126,4858493.222500456 L -8367994.405200128,4858497.824100458 L -8367985.080500118,4858496.416400462 L -8367978.19090013,4858495.37640046 L -8367926.020100123,4858486.845000457 L -8367921.297100121,4858486.072700467 L -8367923.487300128,4858473.046300465 L -8367820.754700124,4858456.647300459 L -8367823.874800125,4858437.924700461 L -8367827.362300123,4858419.063000466 L -8367833.808800124,4858383.506100466 L -8367843.196800126,4858327.954200463 L -8367729.905000121,4858310.133400458 L -8367667.010800125,4858299.686800456 L -8367551.373600128,4858281.052000467 L -8367491.886400126,4858272.107200454 L -8367510.08400012,4858162.27270045 L -8367526.248400123,4858064.832700461 L -8367449.817200128,4858050.931000455 L -8367427.4499001205,4858047.281800466 L -8367424.707200121,4858046.834300461 L -8367425.996500125,4858038.836700467 L -8367433.4788001245,4857992.426700461 L -8367425.841400127,4857991.216900454 L -8367426.049200119,4857989.931100471 L -8367421.733400122,4857989.221400467 L -8367422.742400121,4857983.001500469 L -8367423.775300126,4857976.681800454 L -8367424.785800131,4857970.333300469 L -8367425.803900129,4857964.031900456 L -8367424.555400122,4857963.833700463 L -8367425.465500121,4857957.4916004585 L -8367422.820700124,4857957.046400466 L -8367416.0353001235,4857955.964700454 L -8367407.296200122,4857954.5634004595 L -8367412.649900126,4857922.790000464 L -8367412.785100119,4857921.993600468 L -8367414.35460012,4857912.67270047 L -8367367.530100123,4857904.490800467 L -8367352.011500121,4857901.984300462 L -8367349.762300117,4857901.507600459 L -8367301.149900126,4857894.34070046 L -8367299.629700121,4857903.4560004575 L -8367294.309200119,4857935.356500456 L -8367287.291000126,4857934.05540046 L -8367287.2415001225,4857934.0462004505 L -8367288.118200123,4857929.088800455 L -8367289.021000125,4857923.4735004585 L -8367289.075100116,4857923.136800458 L -8367274.98920012,4857920.569200461 L -8367271.6185001265,4857919.954700458 L -8367254.207700125,4858021.296500451 L -8367228.761700125,4858173.387300456 L -8367228.808200126,4858173.395000459 L -8367235.690500124,4858174.518900455 L -8367255.464800122,4858177.748400464 L -8367256.4250001265,4858177.905200466 L -8367249.546400119,4858219.651200453 L -8367247.666600121,4858231.059700454 L -8367230.996200124,4858228.262700453 L -8367229.513400126,4858228.013900457 L -8367227.626600124,4858239.380200456 L -8367227.368900124,4858240.933400456 L -8367223.235900123,4858265.830700454 L -8367223.101000125,4858266.643400455 L -8367222.18860013,4858272.140300453 L -8367218.727700127,4858292.989000454 L -8367218.334000124,4858295.36100046 L -8367215.443500122,4858294.8417004645 L -8367202.470500123,4858292.51090045 L -8367187.340500122,4858289.792400464 L -8367183.538800128,4858289.109400457 L -8367168.114500125,4858286.338100459 L -8367165.194800119,4858303.286400461 L -8367163.062300122,4858316.420300464 L -8367158.9170001205,4858341.950800465 L -8367158.811500122,4858342.557100459 L -8367153.658300125,4858341.752000461 L -8367145.723100117,4858340.512200465 L -8367137.706400127,4858339.272300461 L -8367114.03520013,4858335.432300459 L -8367104.086100122,4858333.864000454 L -8367094.706300124,4858332.376800459 L -8367094.659200124,4858332.369400459 L -8367095.254300129,4858328.873900454 L -8367095.3119001165,4858328.535900452 L -8367055.467600123,4858321.980000448 L -8367045.74870013,4858320.380900464 L -8367039.833000124,4858355.209000465 L -8367031.583400121,4858353.866800462 L -8366992.3411001265,4858347.482400463 L -8366992.291300128,4858347.474300457 L -8366993.4507001275,4858340.882100468 L -8366993.51010012,4858340.544200466 L -8366983.924600125,4858338.897500467 L -8366982.00660012,4858338.568000469 L -8366983.657700124,4858328.637300459 L -8366984.105100126,4858326.087500457 L -8366986.850400127,4858309.280100466 L -8366987.30030012,4858306.887200457 L -8366987.792200122,4858303.635100467 L -8366987.843500128,4858303.296200454 L -8366983.455200129,4858302.595900461 L -8366963.919900118,4858299.47890046 L -8366959.25290012,4858298.734200457 L -8366955.830100125,4858319.373200466 L -8366955.667900123,4858320.351500451 L -8366921.019500124,4858314.540000454 L -8366868.342500126,4858306.0169004705 L -8366871.695500118,4858286.434400454 L -8366872.058100127,4858284.316500458 L -8366863.667300121,4858282.958600458 L -8366844.1148001235,4858279.7942004725 L -8366841.280600123,4858296.92650046 L -8366838.448600127,4858315.4141004495 L -8366833.723800122,4858314.659500467 L -8366827.4058001265,4858313.775900455 L -8366821.825000124,4858312.871900465 L -8366816.24760012,4858311.968300468 L -8366817.067100126,4858306.974900463 L -8366814.0288001215,4858306.561200466 L -8366813.214800124,4858306.413000471 L -8366812.95720012,4858306.375100456 L -8366807.571000124,4858305.589100461 L -8366807.738500124,4858304.579100456 L -8366807.794600127,4858304.240400461 L -8366802.033900123,4858303.332800458 L -8366799.37260013,4858302.913400458 L -8366795.919400117,4858302.369300464 L -8366795.715300118,4858303.678800458 L -8366794.861700124,4858309.119200456 L -8366793.898100123,4858314.802000462 L -8366787.686000128,4858313.79730046 L -8366781.736300126,4858312.922400462 L -8366777.08940013,4858312.238900461 L -8366778.014800126,4858307.052800457 L -8366774.471600119,4858306.459000457 L -8366766.474200124,4858305.118500457 L -8366766.374700123,4858305.64910045 L -8366760.922000124,4858304.796800467 L -8366760.8766001165,4858304.789700467 L -8366764.15240013,4858285.081600468 L -8366764.7169001205,4858281.685400455 L -8366747.4796001185,4858278.675100459 L -8366742.892100126,4858306.059100456 L -8366742.46720013,4858308.595000464 L -8366738.248000126,4858307.882400459 L -8366729.401900121,4858306.388200466 L -8366698.487700126,4858301.486600455 L -8366688.957400119,4858299.975500468 L -8366699.5450001275,4858236.029400466 L -8366612.981400125,4858221.675700469 L -8366568.669200128,4858214.379400461 L -8366525.1533001205,4858207.009600462 L -8366510.459300126,4858294.142000448 L -8366457.398800127,4858285.24450045 L -8366422.88830012,4858279.456900458 L -8366335.564100125,4858265.198000465 L -8366251.818400124,4858251.718800467 L -8366159.887800122,4858236.981100458 L -8366110.311200127,4858228.665300464 L -8366041.090600124,4858217.103100453 L -8366035.721500125,4858249.571000462 L -8366034.181900126,4858259.27510046 L -8366027.48380012,4858301.490800466 L -8366022.16330013,4858331.874800454 L -8366013.151300121,4858383.338700458 L -8365957.1571001215,4858374.139500465 L -8365782.731900129,4858346.966300466 L -8365764.110600129,4858456.209800461 L -8365745.241500127,4858566.525000457 L -8365734.32470013,4858594.644000456 L -8365726.1263001235,4858641.77550046 L -8365715.45660012,4858704.530500455 L -8365701.630500121,4858785.849000464 L -8365677.108400119,4858929.672500461 L -8365659.439200129,4859033.30270046 L -8365651.531000128,4859079.683700465 L -8365831.174700121,4859107.41220046 L -8365829.819400116,4859115.4029004695 L -8365818.812000126,4859180.298200463 L -8365997.183400126,4859209.4746004585 L -8365987.38600012,4859270.214700466 L -8366162.184400121,4859300.785500456 L -8366173.109100127,4859235.664700454 L -8366183.261100121,4859237.342900466 L -8366201.980200128,4859240.437400457 L -8366211.831600127,4859242.109400458 L -8366209.552300124,4859256.24440046 L -8366209.000400118,4859259.730200464 L -8366217.042900127,4859261.058500456 L -8366219.860600119,4859243.907600457 L -8366220.172100118,4859243.540000453 L -8366220.290300123,4859243.400700454 L -8366221.167800121,4859237.967600468 L -8366222.515600121,4859238.1946004545 L -8366221.98900012,4859242.011100458 L -8366231.549900118,4859243.648700461 L -8366241.545700123,4859245.324700456 L -8366251.214000122,4859246.958300461 L -8366250.92160012,4859248.58140046 L -8366254.7643001275,4859249.21920046 L -8366245.739500124,4859305.886600471 L -8366267.982500119,4859309.525100455 L -8366273.974700124,4859272.570200464 L -8366286.861800126,4859274.724700445 L -8366288.320900125,4859265.243500466 L -8366292.23640012,4859265.861500454 L -8366296.154400126,4859266.496600466 L -8366297.556800122,4859256.343300461 L -8366299.723600126,4859256.718500461 L -8366309.174900119,4859258.280300461 L -8366310.148100127,4859252.426200468 L -8366319.894100128,4859254.038600463 L -8366320.85560012,4859248.036800459 L -8366321.799000122,4859242.172600464 L -8366323.008400116,4859234.630600454 L -8366323.193500117,4859233.484400461 L -8366329.729200126,4859234.597100451 L -8366336.330100127,4859235.639200469 L -8366342.7819001265,4859236.829200462 L -8366352.655000125,4859238.650100457 L -8366354.109800119,4859230.016400471 L -8366371.549500129,4859232.975000464 L -8366363.479200127,4859282.86260046 L -8366521.44370013,4859309.5095004635 L -8366513.042800119,4859357.635700459 L -8366512.512700121,4859360.627000447 L -8366512.019800124,4859363.408100468 L -8366502.703700122,4859415.977100462 L -8366500.7816001205,4859428.160900452 L -8366491.300800126,4859488.25610046 L -8366509.137000126,4859491.129600463 L -8366576.81470012,4859502.032200463 L -8366657.603700122,4859515.243400462 L -8366666.280300128,4859516.662300459 L -8366753.819100125,4859530.633700458 L -8366841.065100127,4859545.753900459 L -8366866.303400122,4859550.065000453 L -8366900.260700123,4859555.865400461 L -8366908.0613001175,4859557.155500459 L -8366918.898800128,4859558.948100463 L -8366954.686400125,4859564.867300462 L -8367008.646800128,4859573.4619004605 L -8367011.797400123,4859579.982800453 L -8367006.430600121,4859614.179300462 L -8366997.091000128,4859673.689700461 L -8366996.966000119,4859674.486700456 L -8366994.91160013,4859687.57680047 L -8366991.209500122,4859694.766000467 L -8366981.69000013,4859713.252300456 L -8366976.857700126,4859743.801900462 L -8366971.831700124,4859775.574500463 L -8366971.300400125,4859778.93370046 L -8366969.131500125,4859792.645300464 L -8367012.849300126,4859799.869200455 L -8367021.383600128,4859801.279500451 L -8367019.391100122,4859813.467800462 L -8367017.492100126,4859824.187400449 L -8367016.77070012,4859828.433300471 L -8367013.6108001275,4859847.031800464 L -8366937.341000123,4859834.573500455 L -8366935.979900126,4859843.127800459 L -8366935.335600126,4859847.177100459 L -8366934.898800121,4859849.922200458 L -8366934.159000129,4859854.572900464 L -8366930.790400125,4859875.70260047 L -8366930.2306001205,4859878.977700461 L -8366926.4759001285,4859902.710800458 L -8366925.983900128,4859905.935700458 L -8366864.845500126,4859895.959900464 L -8366863.785800121,4859895.787000462 L -8366863.046100126,4859900.445500461 L -8366859.577100116,4859922.295500462 L -8366858.667900123,4859928.030300452 L -8366857.497700118,4859935.411800462 L -8366845.991000129,4859933.517300467 L -8366844.664800128,4859942.0426004585 L -8366844.661000127,4859942.067000461 L -8366843.772100124,4859947.825500449 L -8366843.734600125,4859948.075000461 L -8366843.199500125,4859951.542700457 L -8366842.013900125,4859959.24040046 L -8366841.746500121,4859960.972100452 L -8366841.453900123,4859962.845500458 L -8366841.313600119,4859963.738200457 L -8366840.263500118,4859970.463500467 L -8366840.31710013,4859970.472300468 L -8366840.268400124,4859970.783900464 L -8366839.938700122,4859972.893000466 L -8366902.463000125,4859983.68640045 L -8366901.792700118,4859987.995600455 L -8366898.6565001225,4860008.106900452 L -8366893.00770013,4860043.352000454 L -8366892.985600127,4860043.475400461 L -8366891.47340012,4860052.9161004685 L -8366760.047000127,4860031.521900454 L -8366739.496200129,4860154.138800468 L -8366899.611900121,4860180.881700455 L -8366900.1590001285,4860180.973000458 L -8366898.436700122,4860190.976800472 L -8366892.392400123,4860226.075100464 L -8366892.37050013,4860226.198300459 L -8366867.935500126,4860222.173500457 L -8366867.093900131,4860227.088300464 L -8366867.072800121,4860227.211900459 L -8366861.952000129,4860257.124100457 L -8366861.518300128,4860259.655700452 L -8366861.4968001265,4860259.779400455 L -8366860.80360012,4860263.828700466 L -8366832.635700122,4860259.117700458 L -8366832.571400125,4860259.106900458 L -8366831.213900125,4860266.871900458 z" /></g></svg>